ffmpeg started on 2025-06-19 at 11:48:37
Report written to "D:\Convert\FFMetrics\reports\ssim_report-6.txt"
Log level: 32
Command line:
ffmpeg -hide_banner -nostdin -i "G:\\\xc0\xed\xe8\xec\xe5\\[\xd2\xee\xef-4]\\Fate\\\xc0\xef\xee\xea\xf0\xe8\xf4\\Fate_Apocrypha_[05]_[AniLibria_TV]_[HDTVRip_720p]_HEVC.mkv" -i "G:\\\xc0\xed\xe8\xec\xe5\\[\xd2\xee\xef-4]\\Fate\\\xc0\xef\xee\xea\xf0\xe8\xf4\\Fate_Apocrypha_[05]_[AniLibria_TV]_[HDTVRip_720p].mkv" -lavfi "[0:v]settb=AVTB,setpts=PTS-STARTPTS,format=pix_fmts=yuv420p10,fps=24000/1001,scale=1280:720:flags=bicubic[main];[1:v]settb=AVTB,setpts=PTS-STARTPTS,format=pix_fmts=yuv420p,fps=24000/1001,scale=1280:720:flags=bicubic[ref];[main][ref]ssim=eof_action=endall:stats_file='D\\:/Convert/FFMetrics/logs/ssim_logfile-6.txt'" -f null -
Input #0, matroska,webm, from 'G:\Аниме\[Топ-4]\Fate\Апокриф\Fate_Apocrypha_[05]_[AniLibria_TV]_[HDTVRip_720p]_HEVC.mkv':
  Metadata:
    ENCODER         : Lavf61.7.100
  Duration: 00:24:00.11, start: -0.021000, bitrate: 575 kb/s
  Stream #0:0(jpn): Video: hevc (Main 10), yuv420p10le(tv, bt709, progressive), 1280x720 [SAR 1:1 DAR 16:9], 23.81 fps, 23.81 tbr, 1k tbn (default)
      Metadata:
        ENCODER         : Lavc61.19.100 libx265
        BPS             : 377097
        DURATION        : 00:23:59.970000000
        NUMBER_OF_FRAMES: 34524
        NUMBER_OF_BYTES : 67876085
        _STATISTICS_WRITING_APP: mkvpropedit v66.0.0 ('Josie') 64-bit
        _STATISTICS_WRITING_DATE_UTC: 2025-06-16 15:20:34
        _STATISTICS_TAGS: BPS DURATION NUMBER_OF_FRAMES NUMBER_OF_BYTES
  Stream #0:1(rus): Audio: aac (LC), 48000 Hz, stereo, fltp (default)
      Metadata:
        title           : Ados Amikiri Anzen Hekomi Silv
        ENCODER         : Lavc61.19.100 aac
        BPS             : 193654
        DURATION        : 00:24:00.085000000
        NUMBER_OF_FRAMES: 67505
        NUMBER_OF_BYTES : 34859872
        _STATISTICS_WRITING_APP: mkvpropedit v66.0.0 ('Josie') 64-bit
        _STATISTICS_WRITING_DATE_UTC: 2025-06-16 15:20:34
        _STATISTICS_TAGS: BPS DURATION NUMBER_OF_FRAMES NUMBER_OF_BYTES
  Stream #0:2(rus): Subtitle: ass (ssa) (default) (forced)
      Metadata:
        title           : Надписи
        BPS             : 166
        DURATION        : 00:22:36.610000000
        NUMBER_OF_FRAMES: 190
        NUMBER_OF_BYTES : 28180
        _STATISTICS_WRITING_APP: mkvpropedit v66.0.0 ('Josie') 64-bit
        _STATISTICS_WRITING_DATE_UTC: 2025-06-16 15:20:34
        _STATISTICS_TAGS: BPS DURATION NUMBER_OF_FRAMES NUMBER_OF_BYTES
  Stream #0:3(rus): Subtitle: ass (ssa)
      Metadata:
        title           : Полные
        BPS             : 297
        DURATION        : 00:23:29.120000000
        NUMBER_OF_FRAMES: 487
        NUMBER_OF_BYTES : 52411
        _STATISTICS_WRITING_APP: mkvpropedit v66.0.0 ('Josie') 64-bit
        _STATISTICS_WRITING_DATE_UTC: 2025-06-16 15:20:34
        _STATISTICS_TAGS: BPS DURATION NUMBER_OF_FRAMES NUMBER_OF_BYTES
Input #1, matroska,webm, from 'G:\Аниме\[Топ-4]\Fate\Апокриф\Fate_Apocrypha_[05]_[AniLibria_TV]_[HDTVRip_720p].mkv':
  Metadata:
    encoder         : libebml v1.3.0 + libmatroska v1.4.1
    creation_time   : 2017-08-01T20:31:53.000000Z
  Duration: 00:24:00.09, start: 0.000000, bitrate: 1701 kb/s
  Stream #1:0: Video: h264 (Main), yuv420p(tv, bt709, progressive), 1280x720, SAR 1:1 DAR 16:9, 23.81 fps, 23.81 tbr, 1k tbn (default)
      Metadata:
        BPS             : 1294305
        BPS-eng         : 1294305
        DURATION        : 00:23:59.988000000
        DURATION-eng    : 00:23:59.988000000
        NUMBER_OF_FRAMES: 34524
        NUMBER_OF_FRAMES-eng: 34524
        NUMBER_OF_BYTES : 232973032
        NUMBER_OF_BYTES-eng: 232973032
        _STATISTICS_WRITING_APP: mkvmerge v7.3.0 ('Nouages') 64bit built on Oct 22 2014 18:53:34
        _STATISTICS_WRITING_APP-eng: mkvmerge v7.3.0 ('Nouages') 64bit built on Oct 22 2014 18:53:34
        _STATISTICS_WRITING_DATE_UTC: 2017-08-01 20:31:53
        _STATISTICS_WRITING_DATE_UTC-eng: 2017-08-01 20:31:53
        _STATISTICS_TAGS: BPS DURATION NUMBER_OF_FRAMES NUMBER_OF_BYTES
        _STATISTICS_TAGS-eng: BPS DURATION NUMBER_OF_FRAMES NUMBER_OF_BYTES
  Stream #1:1(rus): Audio: aac (LC), 48000 Hz, stereo, fltp (default)
      Metadata:
        title           : Ados Amikiri Anzen Hekomi Silv
        BPS             : 192091
        BPS-eng         : 192091
        DURATION        : 00:24:00.085000000
        DURATION-eng    : 00:24:00.085000000
        NUMBER_OF_FRAMES: 67504
        NUMBER_OF_FRAMES-eng: 67504
        NUMBER_OF_BYTES : 34578582
        NUMBER_OF_BYTES-eng: 34578582
        _STATISTICS_WRITING_APP: mkvmerge v7.3.0 ('Nouages') 64bit built on Oct 22 2014 18:53:34
        _STATISTICS_WRITING_APP-eng: mkvmerge v7.3.0 ('Nouages') 64bit built on Oct 22 2014 18:53:34
        _STATISTICS_WRITING_DATE_UTC: 2017-08-01 20:31:53
        _STATISTICS_WRITING_DATE_UTC-eng: 2017-08-01 20:31:53
        _STATISTICS_TAGS: BPS DURATION NUMBER_OF_FRAMES NUMBER_OF_BYTES
        _STATISTICS_TAGS-eng: BPS DURATION NUMBER_OF_FRAMES NUMBER_OF_BYTES
  Stream #1:2(jpn): Audio: aac (LC), 48000 Hz, stereo, fltp
      Metadata:
        title           : Оригинал
        BPS             : 209803
        BPS-eng         : 209803
        DURATION        : 00:24:00.042000000
        DURATION-eng    : 00:24:00.042000000
        NUMBER_OF_FRAMES: 67502
        NUMBER_OF_FRAMES-eng: 67502
        NUMBER_OF_BYTES : 37765694
        NUMBER_OF_BYTES-eng: 37765694
        _STATISTICS_WRITING_APP: mkvmerge v7.3.0 ('Nouages') 64bit built on Oct 22 2014 18:53:34
        _STATISTICS_WRITING_APP-eng: mkvmerge v7.3.0 ('Nouages') 64bit built on Oct 22 2014 18:53:34
        _STATISTICS_WRITING_DATE_UTC: 2017-08-01 20:31:53
        _STATISTICS_WRITING_DATE_UTC-eng: 2017-08-01 20:31:53
        _STATISTICS_TAGS: BPS DURATION NUMBER_OF_FRAMES NUMBER_OF_BYTES
        _STATISTICS_TAGS-eng: BPS DURATION NUMBER_OF_FRAMES NUMBER_OF_BYTES
  Stream #1:3(rus): Subtitle: ass (ssa) (default) (forced)
      Metadata:
        title           : Надписи
        BPS             : 166
        BPS-eng         : 166
        DURATION        : 00:22:36.610000000
        DURATION-eng    : 00:22:36.610000000
        NUMBER_OF_FRAMES: 190
        NUMBER_OF_FRAMES-eng: 190
        NUMBER_OF_BYTES : 28180
        NUMBER_OF_BYTES-eng: 28180
        _STATISTICS_WRITING_APP: mkvmerge v7.3.0 ('Nouages') 64bit built on Oct 22 2014 18:53:34
        _STATISTICS_WRITING_APP-eng: mkvmerge v7.3.0 ('Nouages') 64bit built on Oct 22 2014 18:53:34
        _STATISTICS_WRITING_DATE_UTC: 2017-08-01 20:31:53
        _STATISTICS_WRITING_DATE_UTC-eng: 2017-08-01 20:31:53
        _STATISTICS_TAGS: BPS DURATION NUMBER_OF_FRAMES NUMBER_OF_BYTES
        _STATISTICS_TAGS-eng: BPS DURATION NUMBER_OF_FRAMES NUMBER_OF_BYTES
  Stream #1:4(rus): Subtitle: ass (ssa)
      Metadata:
        title           : Полные
        BPS             : 297
        BPS-eng         : 297
        DURATION        : 00:23:29.120000000
        DURATION-eng    : 00:23:29.120000000
        NUMBER_OF_FRAMES: 487
        NUMBER_OF_FRAMES-eng: 487
        NUMBER_OF_BYTES : 52411
        NUMBER_OF_BYTES-eng: 52411
        _STATISTICS_WRITING_APP: mkvmerge v7.3.0 ('Nouages') 64bit built on Oct 22 2014 18:53:34
        _STATISTICS_WRITING_APP-eng: mkvmerge v7.3.0 ('Nouages') 64bit built on Oct 22 2014 18:53:34
        _STATISTICS_WRITING_DATE_UTC: 2017-08-01 20:31:53
        _STATISTICS_WRITING_DATE_UTC-eng: 2017-08-01 20:31:53
        _STATISTICS_TAGS: BPS DURATION NUMBER_OF_FRAMES NUMBER_OF_BYTES
        _STATISTICS_TAGS-eng: BPS DURATION NUMBER_OF_FRAMES NUMBER_OF_BYTES
  Stream #1:5: Attachment: ttf
      Metadata:
        filename        : ALBR.ttf
        mimetype        : application/x-truetype-font
  Stream #1:6: Attachment: ttf
      Metadata:
        filename        : 9511(1).ttf
        mimetype        : application/x-truetype-font
Stream mapping:
  Stream #0:0 (hevc) -> settb:default
  Stream #1:0 (h264) -> settb:default
  ssim:default -> Stream #0:0 (wrapped_avframe)
  Stream #0:1 -> #0:1 (aac (native) -> pcm_s16le (native))
Output #0, null, to 'pipe:':
  Metadata:
    encoder         : Lavf61.7.100
  Stream #0:0: Video: wrapped_avframe, yuv420p10le(tv, bt709, progressive), 1280x720 [SAR 1:1 DAR 16:9], q=2-31, 200 kb/s, 23.98 fps, 23.98 tbn
      Metadata:
        encoder         : Lavc61.19.100 wrapped_avframe
  Stream #0:1(rus): Audio: pcm_s16le, 48000 Hz, stereo, s16, 1536 kb/s (default)
      Metadata:
        title           : Ados Amikiri Anzen Hekomi Silv
        _STATISTICS_TAGS: BPS DURATION NUMBER_OF_FRAMES NUMBER_OF_BYTES
        BPS             : 193654
        DURATION        : 00:24:00.085000000
        NUMBER_OF_FRAMES: 67505
        NUMBER_OF_BYTES : 34859872
        _STATISTICS_WRITING_APP: mkvpropedit v66.0.0 ('Josie') 64-bit
        _STATISTICS_WRITING_DATE_UTC: 2025-06-16 15:20:34
        encoder         : Lavc61.19.100 pcm_s16le
frame=  401 fps=0.0 q=-0.0 size=N/A time=00:00:16.72 bitrate=N/A speed=  33x    frame=  877 fps=853 q=-0.0 size=N/A time=00:00:36.57 bitrate=N/A speed=35.6x    frame= 1389 fps=904 q=-0.0 size=N/A time=00:00:57.93 bitrate=N/A speed=37.7x    frame= 1810 fps=877 q=-0.0 size=N/A time=00:01:15.49 bitrate=N/A speed=36.6x    frame= 2314 fps=899 q=-0.0 size=N/A time=00:01:36.51 bitrate=N/A speed=37.5x    frame= 2737 fps=887 q=-0.0 size=N/A time=00:01:54.15 bitrate=N/A speed=  37x    frame= 3090 fps=856 q=-0.0 size=N/A time=00:02:08.87 bitrate=N/A speed=35.7x    frame= 3522 fps=855 q=-0.0 size=N/A time=00:02:26.89 bitrate=N/A speed=35.6x    frame= 3999 fps=864 q=-0.0 size=N/A time=00:02:46.79 bitrate=N/A speed=  36x    frame= 4386 fps=851 q=-0.0 size=N/A time=00:03:02.93 bitrate=N/A speed=35.5x    frame= 4875 fps=861 q=-0.0 size=N/A time=00:03:23.32 bitrate=N/A speed=35.9x    frame= 5481 fps=886 q=-0.0 size=N/A time=00:03:48.60 bitrate=N/A speed=  37x    frame= 6079 fps=908 q=-0.0 size=N/A time=00:04:13.54 bitrate=N/A speed=37.9x    frame= 6696 fps=927 q=-0.0 size=N/A time=00:04:39.27 bitrate=N/A speed=38.7x    frame= 7296 fps=944 q=-0.0 size=N/A time=00:05:04.30 bitrate=N/A speed=39.4x    frame= 7868 fps=954 q=-0.0 size=N/A time=00:05:28.16 bitrate=N/A speed=39.8x    frame= 8422 fps=962 q=-0.0 size=N/A time=00:05:51.26 bitrate=N/A speed=40.1x    frame= 9049 fps=975 q=-0.0 size=N/A time=00:06:17.41 bitrate=N/A speed=40.7x    frame= 9546 fps=975 q=-0.0 size=N/A time=00:06:38.14 bitrate=N/A speed=40.7x    frame=10157 fps=985 q=-0.0 size=N/A time=00:07:03.63 bitrate=N/A speed=41.1x    frame=10713 fps=990 q=-0.0 size=N/A time=00:07:26.82 bitrate=N/A speed=41.3x    frame=11311 fps=998 q=-0.0 size=N/A time=00:07:51.76 bitrate=N/A speed=41.6x    frame=11907 fps=1004 q=-0.0 size=N/A time=00:08:16.62 bitrate=N/A speed=41.9x    frame=12520 fps=1012 q=-0.0 size=N/A time=00:08:42.18 bitrate=N/A speed=42.2x    frame=13067 fps=1015 q=-0.0 size=N/A time=00:09:05.00 bitrate=N/A speed=42.3x    frame=13624 fps=1016 q=-0.0 size=N/A time=00:09:28.23 bitrate=N/A speed=42.4x    frame=14173 fps=1019 q=-0.0 size=N/A time=00:09:51.13 bitrate=N/A speed=42.5x    frame=14764 fps=1023 q=-0.0 size=N/A time=00:10:15.78 bitrate=N/A speed=42.7x    frame=15335 fps=1026 q=-0.0 size=N/A time=00:10:39.59 bitrate=N/A speed=42.8x    frame=15898 fps=1029 q=-0.0 size=N/A time=00:11:03.07 bitrate=N/A speed=42.9x    frame=16477 fps=1031 q=-0.0 size=N/A time=00:11:27.22 bitrate=N/A speed=  43x    frame=17075 fps=1035 q=-0.0 size=N/A time=00:11:52.16 bitrate=N/A speed=43.2x    frame=17720 fps=1041 q=-0.0 size=N/A time=00:12:19.07 bitrate=N/A speed=43.4x    frame=18310 fps=1044 q=-0.0 size=N/A time=00:12:43.67 bitrate=N/A speed=43.5x    frame=18867 fps=1045 q=-0.0 size=N/A time=00:13:06.91 bitrate=N/A speed=43.6x    frame=19471 fps=1048 q=-0.0 size=N/A time=00:13:32.10 bitrate=N/A speed=43.7x    frame=20050 fps=1051 q=-0.0 size=N/A time=00:13:56.25 bitrate=N/A speed=43.8x    frame=20648 fps=1054 q=-0.0 size=N/A time=00:14:21.19 bitrate=N/A speed=43.9x    frame=21265 fps=1057 q=-0.0 size=N/A time=00:14:46.92 bitrate=N/A speed=44.1x    frame=21798 fps=1057 q=-0.0 size=N/A time=00:15:09.15 bitrate=N/A speed=44.1x    frame=22339 fps=1056 q=-0.0 size=N/A time=00:15:31.72 bitrate=N/A speed=  44x    frame=22853 fps=1055 q=-0.0 size=N/A time=00:15:53.20 bitrate=N/A speed=  44x    frame=23482 fps=1058 q=-0.0 size=N/A time=00:16:19.39 bitrate=N/A speed=44.1x    frame=24046 fps=1059 q=-0.0 size=N/A time=00:16:42.91 bitrate=N/A speed=44.2x    frame=24688 fps=1064 q=-0.0 size=N/A time=00:17:09.69 bitrate=N/A speed=44.4x    frame=25262 fps=1064 q=-0.0 size=N/A time=00:17:33.63 bitrate=N/A speed=44.4x    frame=25809 fps=1065 q=-0.0 size=N/A time=00:17:56.45 bitrate=N/A speed=44.4x    frame=26347 fps=1064 q=-0.0 size=N/A time=00:18:18.88 bitrate=N/A speed=44.4x    frame=26882 fps=1063 q=-0.0 size=N/A time=00:18:41.20 bitrate=N/A speed=44.4x    frame=27477 fps=1065 q=-0.0 size=N/A time=00:19:06.01 bitrate=N/A speed=44.4x    frame=28077 fps=1067 q=-0.0 size=N/A time=00:19:31.04 bitrate=N/A speed=44.5x    frame=28725 fps=1071 q=-0.0 size=N/A time=00:19:58.07 bitrate=N/A speed=44.7x    frame=29330 fps=1073 q=-0.0 size=N/A time=00:20:23.30 bitrate=N/A speed=44.7x    frame=29938 fps=1075 q=-0.0 size=N/A time=00:20:48.66 bitrate=N/A speed=44.8x    frame=30614 fps=1079 q=-0.0 size=N/A time=00:21:16.85 bitrate=N/A speed=  45x    frame=31142 fps=1078 q=-0.0 size=N/A time=00:21:38.88 bitrate=N/A speed=  45x    frame=31614 fps=1075 q=-0.0 size=N/A time=00:21:58.56 bitrate=N/A speed=44.8x    frame=31990 fps=1069 q=-0.0 size=N/A time=00:22:14.24 bitrate=N/A speed=44.6x    frame=32354 fps=1063 q=-0.0 size=N/A time=00:22:29.43 bitrate=N/A speed=44.3x    frame=32809 fps=1060 q=-0.0 size=N/A time=00:22:48.40 bitrate=N/A speed=44.2x    frame=33160 fps=1054 q=-0.0 size=N/A time=00:23:03.04 bitrate=N/A speed=43.9x    frame=33490 fps=1047 q=-0.0 size=N/A time=00:23:16.81 bitrate=N/A speed=43.7x    frame=33823 fps=1041 q=-0.0 size=N/A time=00:23:30.70 bitrate=N/A speed=43.4x    frame=34424 fps=1043 q=-0.0 size=N/A time=00:23:55.76 bitrate=N/A speed=43.5x    [Parsed_ssim_10 @ 0000013d3e5bb100] SSIM Y:0.989821 (19.922834) U:0.990150 (20.065758) V:0.990660 (20.296518) All:0.990016 (20.006749)
[out#0/null @ 0000013d33bafe40] video:14835KiB audio:270020KiB subtitle:0KiB other streams:0KiB global headers:0KiB muxing overhead: unknown
frame=34525 fps=1044 q=-0.0 Lsize=N/A time=00:23:59.98 bitrate=N/A speed=43.5x    
